<?xml version="1.0" standalone="no"?>
<!DOCTYPE svg PUBLIC "-//W3C//DTD SVG 20010904//EN"
 "http://www.w3.org/TR/2001/REC-SVG-20010904/DTD/svg10.dtd">
<svg version="1.0" xmlns="http://www.w3.org/2000/svg"
 width="500.000000pt" height="500.000000pt" viewBox="0 0 500.000000 500.000000"
 preserveAspectRatio="xMidYMid meet">

<g transform="translate(0.000000,500.000000) scale(0.100000,-0.100000)"
fill="#000000" stroke="none">
<path d="M2158 4898 c-91 -175 -151 -359 -188 -574 -26 -153 -26 -165 14 -226
85 -133 184 -371 202 -486 4 -23 10 -44 14 -47 4 -3 20 39 35 93 60 213 156
446 224 548 17 25 31 56 31 68 0 80 -103 397 -167 516 -84 156 -125 183 -165
108z"/>
<path d="M1406 4528 c-36 -259 -28 -603 19 -798 7 -30 16 -67 19 -81 4 -18 35
-49 103 -100 114 -85 372 -335 488 -472 l80 -95 3 35 c4 40 -30 283 -59 423
-74 364 -238 713 -451 961 -67 78 -167 169 -185 169 -6 0 -13 -19 -17 -42z"/>
<path d="M2883 4503 c-269 -261 -462 -661 -542 -1123 -23 -131 -54 -386 -49
-399 2 -5 45 42 97 104 115 139 379 401 483 479 54 41 80 67 87 89 36 115 68
453 56 612 -13 194 -31 305 -49 305 -7 0 -44 -30 -83 -67z"/>
<path d="M3612 4500 c-131 -63 -287 -177 -392 -284 l-45 -47 -7 -142 c-3 -78
-10 -166 -14 -196 l-7 -54 34 25 c50 37 193 119 281 160 73 34 79 40 106 95
35 69 73 178 101 288 20 81 38 195 29 195 -2 0 -41 -18 -86 -40z"/>
<path d="M690 4498 c1 -29 40 -199 65 -278 15 -47 43 -120 63 -164 l36 -78
120 -58 c67 -32 157 -81 201 -108 44 -28 81 -49 82 -48 1 1 -5 44 -13 96 -7
52 -14 138 -14 190 l0 95 -75 71 c-104 98 -220 179 -344 242 -112 56 -121 59
-121 40z"/>
<path d="M4040 4018 c-444 -94 -930 -397 -1383 -863 -99 -101 -267 -295 -267
-307 0 -6 24 -7 58 -3 475 53 734 117 962 236 219 114 371 286 582 654 132
231 170 305 156 304 -7 0 -56 -10 -108 -21z"/>
<path d="M250 3994 c0 -25 240 -422 344 -569 217 -306 472 -447 966 -535 133
-23 363 -50 433 -50 l49 0 -34 42 c-60 77 -331 349 -458 461 -421 370 -837
585 -1257 652 -24 4 -43 3 -43 -1z"/>
<path d="M471 2567 c-13 -6 -33 -24 -44 -39 -19 -25 -20 -47 -24 -375 -5 -391
5 -559 41 -723 35 -153 68 -245 139 -389 125 -254 301 -452 577 -648 328 -234
748 -342 1175 -304 366 32 656 141 935 350 216 162 412 398 526 635 l47 96
177 0 c139 0 191 4 246 18 138 37 257 112 346 219 212 254 192 651 -43 884
-48 47 -91 78 -150 107 -106 52 -182 70 -337 78 -123 7 -123 7 -138 36 -8 16
-29 38 -47 48 -31 20 -63 20 -1717 20 -1317 0 -1690 -3 -1709 -13z m3227 -235
c18 -3 17 -622 -3 -757 -21 -149 -58 -266 -125 -400 -123 -244 -289 -436 -500
-577 -175 -117 -329 -183 -545 -234 -112 -26 -135 -28 -335 -29 -231 0 -312
11 -505 72 -274 86 -571 291 -730 505 -145 194 -223 355 -273 558 -24 100 -25
121 -29 473 -3 203 -3 374 0 380 3 9 354 12 1518 11 833 0 1520 -1 1527 -2z
m584 -144 c96 -46 150 -100 196 -196 35 -72 37 -83 37 -172 -1 -85 -4 -102
-32 -163 -58 -123 -171 -212 -303 -237 -65 -12 -247 -13 -254 -1 -3 5 2 55 11
112 12 78 17 177 18 394 1 160 2 294 3 299 1 4 57 7 125 4 116 -4 127 -6 199
-40z"/>
</g>
</svg>
